<?xml version="1.0" standalone="no"?>
<!DOCTYPE svg PUBLIC "-//W3C//DTD SVG 20010904//EN"
 "http://www.w3.org/TR/2001/REC-SVG-20010904/DTD/svg10.dtd">
<svg version="1.0" xmlns="http://www.w3.org/2000/svg"
 width="333.000000pt" height="359.000000pt" viewBox="0 0 333.000000 359.000000"
 preserveAspectRatio="xMidYMid meet">

<g transform="translate(0.000000,359.000000) scale(0.100000,-0.100000)"
fill="#000000" stroke="none">
<path d="M1454 3365 c-21 -23 -40 -35 -57 -35 -17 0 -33 -10 -47 -30 -12 -16
-30 -30 -40 -30 -10 0 -22 -5 -25 -10 -4 -7 -24 -8 -50 -5 -39 6 -44 5 -64
-23 -16 -23 -21 -45 -21 -95 0 -57 -3 -68 -30 -98 -16 -19 -30 -37 -30 -40 0
-3 11 -20 25 -39 16 -22 25 -47 25 -70 0 -42 58 -126 97 -141 15 -6 24 -20 29
-46 3 -21 18 -53 32 -72 l25 -33 -22 -38 c-11 -21 -21 -50 -21 -65 0 -31 -16
-63 -42 -85 -10 -8 -21 -32 -25 -53 -6 -42 17 -85 88 -161 51 -56 79 -124 79
-192 0 -38 7 -69 24 -102 16 -32 26 -74 31 -127 6 -77 5 -82 -25 -140 -18 -33
-45 -73 -61 -90 -30 -32 -69 -139 -69 -192 0 -21 -11 -45 -35 -73 -19 -23 -35
-49 -35 -58 0 -10 -7 -49 -16 -88 -24 -101 -5 -151 47 -124 15 9 23 5 41 -16
13 -14 42 -39 65 -56 24 -16 50 -43 59 -61 9 -18 30 -47 45 -65 16 -18 29 -39
29 -47 0 -7 19 -32 43 -55 35 -34 47 -40 72 -35 19 4 46 -3 80 -19 27 -13 62
-29 76 -34 19 -8 28 -20 33 -45 4 -19 13 -40 21 -47 13 -11 64 -8 133 6 22 4
62 57 62 81 0 6 -21 26 -47 44 -27 17 -54 41 -62 52 -36 51 -51 59 -97 52 -56
-8 -74 3 -116 66 -53 83 -59 96 -65 150 -4 31 -15 62 -28 78 -31 37 -42 60
-50 109 -8 50 -30 66 -79 56 -29 -5 -36 -2 -46 16 -20 38 -16 140 9 195 13 28
34 83 47 124 14 41 40 107 59 148 32 70 35 82 38 196 l3 121 33 14 c37 15 106
8 118 -11 4 -7 6 -40 4 -73 -1 -37 2 -70 10 -81 10 -17 -4 -60 -99 -303 -61
-156 -110 -285 -108 -287 2 -2 71 129 155 291 125 244 156 295 176 300 20 5
40 -6 104 -55 44 -33 89 -76 101 -96 30 -52 46 -38 42 38 -3 47 -10 74 -28
101 -34 53 -56 124 -49 157 3 15 23 45 45 66 21 21 44 50 50 66 19 46 83 61
237 56 70 -2 138 -7 150 -11 17 -6 29 0 59 26 37 34 37 35 45 143 l9 109 -85
84 -85 85 0 82 c0 70 -3 85 -20 100 -12 10 -30 33 -41 51 -11 18 -28 36 -39
39 -10 3 -28 21 -39 40 -19 32 -24 35 -70 35 -35 0 -65 -8 -106 -30 -53 -28
-85 -37 -85 -25 0 3 20 46 45 95 25 49 45 94 45 100 0 6 -30 10 -73 10 l-73 0
-43 -100 c-38 -87 -50 -105 -98 -145 -57 -47 -102 -61 -87 -27 4 9 8 35 9 57
0 22 7 51 14 63 8 16 10 40 6 72 -4 30 -2 62 6 83 14 40 6 83 -19 96 -11 6
-36 6 -66 0 -63 -12 -84 2 -61 38 22 33 15 72 -15 94 -14 10 -53 20 -90 23
-65 7 -65 7 -96 -29z m179 -2 c19 -12 25 -48 10 -71 -8 -13 -13 -33 -11 -45 3
-20 8 -22 78 -22 l75 0 -2 -45 c-8 -137 -12 -192 -22 -255 -6 -38 -9 -76 -6
-82 8 -22 41 -14 88 22 l46 35 -50 -112 c-80 -178 -80 -159 -1 -156 l67 3 66
136 c62 126 69 136 99 142 17 4 44 16 59 27 50 35 161 49 161 20 0 -5 34 -44
76 -87 l75 -78 -5 -50 c-3 -27 -2 -66 3 -86 7 -31 44 -85 76 -110 6 -4 27 -23
48 -41 l37 -33 -7 -104 c-5 -90 -9 -107 -31 -133 -22 -25 -30 -29 -56 -23 -17
4 -80 9 -141 11 -145 6 -230 -14 -254 -60 -9 -16 -33 -47 -53 -68 -50 -51 -61
-95 -41 -156 9 -26 26 -60 38 -77 15 -20 24 -49 27 -88 l5 -58 -28 33 c-41 51
-177 151 -194 144 -8 -3 -15 -3 -15 1 0 3 38 80 85 170 47 90 85 166 85 168 0
3 -67 5 -150 5 -82 0 -150 2 -150 5 0 3 9 23 20 45 11 22 20 44 20 50 0 6 -25
10 -59 10 l-59 0 -36 -85 c-20 -46 -39 -91 -42 -100 -5 -13 13 -15 140 -15
110 0 146 -3 145 -12 -1 -27 -95 -249 -104 -248 -6 0 -9 30 -7 75 4 73 3 75
-23 85 -39 15 -102 12 -135 -5 -17 -9 -30 -19 -30 -23 -1 -4 -3 -61 -6 -127
-4 -111 -7 -125 -38 -190 -19 -38 -43 -99 -54 -135 -12 -36 -33 -94 -48 -130
-23 -56 -26 -73 -20 -131 9 -96 10 -99 65 -99 52 0 71 -13 71 -46 0 -28 23
-82 48 -114 11 -14 25 -52 31 -84 7 -40 25 -80 55 -125 58 -89 68 -96 131 -93
52 2 54 1 90 -42 20 -24 51 -52 70 -61 39 -18 43 -34 19 -70 -11 -16 -26 -25
-43 -25 -14 0 -41 -4 -59 -9 -37 -11 -62 6 -62 43 0 26 -24 50 -60 61 -14 4
-45 18 -69 31 -31 17 -53 23 -73 19 -22 -5 -34 0 -63 28 -19 19 -35 39 -35 45
0 5 -15 28 -32 50 -18 22 -41 53 -50 70 -9 17 -39 47 -67 68 -29 20 -56 45
-62 56 -9 16 -17 19 -45 13 -30 -5 -35 -3 -43 18 -7 16 -5 41 4 73 7 27 16 66
20 87 3 21 15 47 25 57 27 27 52 80 46 96 -3 8 1 31 8 52 8 20 17 49 20 64 4
15 20 41 36 58 17 17 44 58 60 90 26 51 30 70 30 141 0 67 -5 92 -29 147 -20
47 -27 77 -24 100 8 51 -31 140 -93 211 -92 106 -98 136 -40 194 16 16 26 37
26 54 0 15 11 51 24 80 l25 52 -30 43 c-16 24 -29 55 -29 70 0 29 -23 58 -45
58 -8 0 -21 12 -29 28 -8 15 -23 36 -35 46 -16 15 -20 27 -15 51 4 25 0 38
-20 62 -32 38 -32 41 -1 73 21 22 26 38 28 96 2 38 10 79 18 92 12 19 20 22
55 16 26 -4 44 -2 48 5 4 6 15 11 25 11 10 0 32 16 50 35 18 20 41 35 54 35
28 0 41 9 56 38 12 23 16 24 84 17 40 -4 76 -9 80 -12z"/>
<path d="M1973 2603 c-9 -3 -13 -32 -13 -94 0 -49 -4 -89 -8 -89 -21 0 -32 29
-32 88 0 56 -2 63 -15 52 -10 -9 -15 -31 -15 -72 0 -65 -13 -73 -40 -25 -13
24 -13 29 4 58 13 22 15 34 8 41 -15 15 -46 -10 -33 -26 6 -7 4 -20 -4 -36
-20 -35 -18 -53 6 -84 17 -22 24 -24 41 -15 14 8 27 8 43 1 17 -8 29 -6 53 10
l32 20 0 89 c0 49 -3 89 -7 88 -5 0 -14 -3 -20 -6z"/>
<path d="M1563 2559 c-9 -9 -8 -15 3 -26 9 -9 14 -36 14 -74 0 -57 1 -59 21
-49 18 10 20 19 17 71 -3 59 -3 59 25 59 27 0 27 0 27 -70 0 -38 4 -70 8 -70
22 0 32 29 32 97 l0 73 -68 0 c-37 0 -73 -5 -79 -11z"/>
<path d="M2118 2548 c-25 -39 -29 -75 -14 -113 17 -40 30 -44 47 -13 l12 22
19 -24 c15 -19 23 -22 36 -13 13 8 18 28 20 87 2 42 -1 76 -6 76 -19 0 -32
-27 -32 -67 0 -35 -3 -41 -16 -36 -10 4 -20 -1 -27 -12 -9 -17 -11 -16 -23 6
-18 33 -18 73 0 66 8 -3 20 1 27 9 10 13 10 17 -2 25 -21 13 -25 11 -41 -13z"/>
<path d="M2970 1136 c0 -9 22 -28 50 -44 27 -15 50 -30 50 -33 0 -3 -11 -11
-24 -17 -26 -12 -45 0 -47 28 0 10 -2 11 -6 3 -2 -7 -14 -13 -25 -13 -16 0
-18 3 -9 14 14 16 -5 34 -19 20 -14 -14 13 -59 35 -59 11 0 26 -8 33 -17 28
-39 84 -3 75 48 -5 29 -20 42 -105 82 -5 2 -8 -3 -8 -12z"/>
<path d="M345 1130 c-4 -6 -32 -23 -63 -39 -49 -25 -53 -29 -34 -35 15 -5 37
1 69 18 25 15 48 24 51 22 11 -12 -11 -37 -50 -57 -54 -27 -55 -28 -38 -39 15
-9 130 43 130 60 0 5 -8 25 -17 45 -16 35 -36 45 -48 25z"/>
<path d="M410 1024 c0 -3 4 -13 9 -23 8 -15 1 -23 -45 -51 -45 -27 -52 -35
-40 -42 12 -7 33 1 76 27 33 20 60 39 60 41 0 14 -34 54 -46 54 -8 0 -14 -3
-14 -6z"/>
<path d="M2878 1005 c-14 -32 9 -69 57 -89 41 -18 44 -26 10 -26 -14 0 -37 11
-51 25 -26 26 -59 34 -51 13 2 -7 9 -13 15 -13 7 0 23 -12 37 -27 34 -37 85
-39 85 -5 0 25 -33 67 -53 67 -21 0 -40 17 -32 29 7 12 28 3 98 -44 26 -17 27
-17 27 1 0 12 -22 33 -58 57 -32 20 -62 37 -66 37 -3 0 -11 -11 -18 -25z"/>
<path d="M465 901 c-1 -24 -8 -48 -20 -60 -24 -27 -49 -28 -42 -1 4 15 0 20
-14 20 -29 0 -24 -36 5 -44 34 -8 74 9 87 38 10 21 15 23 36 15 36 -13 36 -13
7 31 -35 53 -59 53 -59 1z"/>
<path d="M2745 900 c-3 -11 -11 -20 -16 -20 -5 0 -9 -9 -9 -20 0 -11 -4 -20
-10 -20 -14 0 -12 -28 3 -33 9 -3 7 -9 -5 -24 -34 -38 -11 -103 35 -103 9 0
26 -9 38 -21 l21 -21 -7 24 c-4 12 -16 31 -27 41 -20 16 -34 77 -19 77 4 0 25
-18 46 -40 41 -42 55 -49 55 -27 0 16 -91 107 -108 107 -15 0 -15 9 1 43 13
28 37 37 37 13 0 -17 101 -96 123 -96 10 0 17 7 17 15 0 8 -5 15 -11 15 -17 0
-119 83 -119 97 0 21 -38 15 -45 -7z m-18 -176 c-9 -9 -28 6 -21 18 4 6 10 6
17 -1 6 -6 8 -13 4 -17z"/>
<path d="M566 886 c3 -8 12 -17 20 -20 19 -7 18 -26 -2 -26 -24 0 -123 -82
-124 -101 0 -9 7 -19 15 -23 9 -3 15 0 15 8 0 14 105 106 121 106 16 0 9 30
-11 50 -23 23 -42 26 -34 6z"/>
<path d="M590 754 c-8 -8 -25 -23 -37 -32 -12 -9 -25 -29 -29 -44 -5 -24 -3
-28 14 -28 13 0 22 -9 26 -25 5 -19 13 -25 34 -25 36 0 155 115 130 125 -11 4
-33 -12 -68 -49 -29 -31 -57 -56 -61 -56 -20 0 -6 27 33 67 34 34 38 43 23 43
-11 0 -37 -17 -58 -37 l-39 -38 4 30 c2 22 11 34 35 45 18 8 33 21 33 28 0 16
-21 14 -40 -4z"/>
<path d="M2618 699 c-32 -18 -23 -66 20 -104 24 -23 32 -35 21 -35 -25 0 -69
39 -69 61 0 12 -7 19 -20 19 -24 0 -27 -18 -5 -27 9 -3 22 -20 30 -39 14 -35
58 -55 77 -36 17 17 -2 70 -34 93 -22 16 -27 24 -18 33 9 8 22 -1 54 -38 28
-31 46 -45 50 -37 9 13 3 23 -43 79 -39 46 -38 46 -63 31z"/>
<path d="M810 680 c-13 -24 -6 -40 18 -40 12 0 13 3 4 12 -8 8 -8 15 -1 24 7
8 7 14 0 18 -6 4 -15 -3 -21 -14z"/>
<path d="M857 659 c-3 -13 -1 -19 6 -16 15 5 22 37 9 37 -5 0 -12 -9 -15 -21z"/>
<path d="M730 637 c0 -7 -13 -21 -30 -30 -24 -15 -30 -25 -30 -53 0 -23 5 -34
15 -34 8 0 19 -9 25 -20 7 -13 21 -20 38 -20 22 0 37 13 80 70 44 59 49 70 32
70 -12 0 -37 -24 -70 -66 -35 -47 -50 -61 -50 -47 0 11 16 41 35 67 32 41 34
46 16 46 -12 0 -33 -18 -53 -46 -32 -46 -33 -46 -36 -19 -4 28 21 65 45 65 7
0 13 7 13 15 0 8 -7 15 -15 15 -8 0 -15 -6 -15 -13z"/>
<path d="M2504 596 c-4 -11 5 -34 27 -66 38 -56 52 -65 69 -44 8 9 9 14 2 14
-6 0 -29 26 -51 57 -32 45 -42 53 -47 39z"/>
<path d="M870 550 c0 -5 7 -13 17 -18 14 -9 13 -15 -15 -61 -37 -59 -37 -61
-17 -61 12 0 85 99 85 117 0 11 -34 32 -52 33 -10 0 -18 -4 -18 -10z"/>
<path d="M1046 534 c-22 -22 -20 -37 3 -25 20 11 36 41 21 41 -5 0 -16 -7 -24
-16z"/>
<path d="M2358 518 c-45 -26 -50 -52 -12 -55 15 0 39 -11 55 -22 38 -28 41 -2
3 28 -22 17 -24 24 -14 36 23 27 5 34 -32 13z"/>
<path d="M2432 520 c2 -8 10 -15 18 -15 8 0 16 7 18 15 2 10 -5 16 -18 16 -13
0 -20 -6 -18 -16z"/>
<path d="M2257 498 c-2 -7 9 -43 25 -80 33 -79 33 -78 10 -78 -27 0 -52 32
-52 67 0 18 -6 33 -15 37 -10 4 -15 -1 -15 -14 0 -11 5 -20 10 -20 6 0 10 -15
10 -33 0 -61 64 -90 95 -44 14 22 13 29 -17 100 -31 76 -42 89 -51 65z"/>
<path d="M1033 446 c-21 -43 -31 -53 -50 -52 -18 1 -23 7 -23 26 0 34 13 52
32 45 9 -4 19 -2 23 4 3 6 -1 14 -10 17 -35 14 -103 -92 -77 -118 8 -8 16 -8
26 1 13 11 16 9 22 -13 11 -47 31 -32 78 61 41 83 41 83 21 83 -8 0 -27 -24
-42 -54z"/>
<path d="M2521 461 c-1 -8 -8 -11 -21 -8 -22 6 -29 -17 -9 -29 15 -9 43 20 36
38 -5 11 -6 11 -6 -1z"/>
<path d="M2025 450 c-9 -14 4 -52 16 -45 12 8 12 42 0 50 -5 3 -12 1 -16 -5z"/>
<path d="M1103 443 c-18 -6 -16 -23 1 -23 25 0 27 -17 6 -70 -24 -60 -24 -60
-6 -60 11 0 66 112 66 134 0 8 -55 23 -67 19z"/>
<path d="M1545 403 c17 -9 33 -20 36 -26 4 -5 9 -5 14 2 11 19 -15 41 -49 41
l-31 -1 30 -16z"/>
<path d="M2135 410 c-3 -5 1 -20 9 -32 22 -31 20 -48 -5 -45 -12 1 -24 -4 -26
-10 -3 -7 1 -13 9 -13 7 0 24 -9 38 -20 14 -11 28 -20 31 -20 16 0 17 33 2 77
-22 67 -42 89 -58 63z"/>
<path d="M1196 381 c-11 -12 -15 -27 -12 -39 4 -13 1 -22 -9 -26 -22 -8 -19
-29 8 -54 20 -19 28 -21 54 -12 25 9 32 20 46 68 9 31 14 58 13 60 -10 9 -35
-13 -39 -36 -3 -15 -11 -40 -17 -57 l-12 -30 -19 24 c-17 21 -18 26 -5 40 9
10 13 26 10 38 -4 14 -1 21 8 20 17 -3 23 17 5 21 -7 1 -21 -6 -31 -17z"/>
<path d="M1495 390 c-3 -5 1 -13 10 -16 22 -9 29 1 11 15 -10 8 -16 9 -21 1z"/>
<path d="M2380 374 c0 -10 7 -14 22 -12 32 5 35 28 4 28 -17 0 -26 -5 -26 -16z"/>
<path d="M1999 363 c-3 -26 4 -80 13 -90 18 -22 4 -34 -20 -17 -18 13 -22 24
-20 52 2 21 -1 37 -7 37 -10 0 -12 -73 -2 -99 3 -8 15 -20 26 -26 19 -9 23 -7
38 24 15 33 15 36 -1 61 -19 30 -15 45 8 26 8 -7 17 -30 21 -52 8 -45 21 -58
30 -30 7 23 -2 68 -21 99 -14 21 -63 32 -65 15z"/>
<path d="M1336 338 c-23 -35 -28 -71 -16 -103 10 -26 13 -28 21 -12 13 23 26
22 34 -3 12 -39 40 -6 53 61 6 35 9 65 7 67 -9 9 -35 -20 -35 -38 0 -31 -11
-49 -26 -43 -8 3 -14 0 -14 -7 0 -6 -4 -8 -10 -5 -5 3 -10 24 -10 46 0 32 3
39 16 37 10 -2 19 3 21 10 8 21 -26 13 -41 -10z"/>
<path d="M1481 336 c-12 -14 -10 -16 9 -16 l21 0 -20 -26 c-25 -31 -27 -62 -7
-90 12 -15 17 -17 27 -6 10 9 10 15 1 24 -14 14 -16 82 -2 73 5 -3 17 -30 26
-60 15 -45 20 -52 34 -45 12 7 19 28 24 76 4 37 6 68 4 69 -2 2 -26 6 -54 10
-40 5 -53 3 -63 -9z m89 -41 c0 -21 -17 -27 -24 -9 -10 25 -7 34 9 28 8 -4 15
-12 15 -19z"/>
<path d="M1884 335 c-10 -25 6 -126 21 -132 20 -7 41 7 26 17 -7 4 -15 32 -18
64 -6 58 -18 80 -29 51z"/>
<path d="M1661 314 c-25 -32 -25 -34 -7 -59 14 -19 14 -19 36 0 12 11 19 27
17 37 -6 22 18 24 27 2 3 -9 6 -38 6 -66 0 -45 2 -49 16 -37 12 10 15 26 12
71 -5 65 -19 88 -42 69 -10 -8 -16 -9 -21 -1 -10 16 -22 12 -44 -16z m26 -24
c-1 -11 -4 -20 -8 -20 -10 0 -20 30 -13 41 9 15 23 1 21 -21z"/>
<path d="M1817 333 c-9 -8 -7 -80 2 -113 4 -14 15 -27 25 -28 15 -3 17 0 12
14 -5 11 -11 43 -15 71 -8 55 -13 67 -24 56z"/>
<path d="M1654 217 c-7 -20 3 -37 21 -37 23 0 26 16 5 35 -18 16 -20 16 -26 2z"/>
</g>
</svg>
